<svg width="402" height="874" viewBox="0 0 402 874" fill="none" xmlns="http://www.w3.org/2000/svg">
<rect width="402" height="874" fill="#278B6C"/>
<path d="M153.673 146.767C155.917 146.767 158.076 147.143 160.15 147.896C162.238 148.649 164.099 149.849 165.733 151.497C167.38 153.145 168.68 155.332 169.632 158.06C170.598 160.773 171.088 164.104 171.102 168.053C171.102 171.76 170.683 175.07 169.845 177.982C169.021 180.879 167.835 183.344 166.287 185.375C164.738 187.406 162.87 188.955 160.683 190.02C158.495 191.071 156.052 191.597 153.353 191.597C150.441 191.597 147.87 191.036 145.64 189.913C143.41 188.777 141.613 187.236 140.25 185.29C138.9 183.33 138.083 181.128 137.799 178.685H146.897C147.252 180.276 147.998 181.511 149.135 182.392C150.271 183.259 151.677 183.692 153.353 183.692C156.194 183.692 158.353 182.456 159.831 179.984C161.308 177.499 162.054 174.097 162.068 169.778H161.77C161.116 171.057 160.235 172.158 159.127 173.081C158.02 173.99 156.748 174.693 155.314 175.19C153.893 175.688 152.38 175.936 150.775 175.936C148.204 175.936 145.91 175.332 143.893 174.125C141.876 172.918 140.285 171.256 139.12 169.139C137.956 167.023 137.373 164.608 137.373 161.895C137.359 158.969 138.034 156.362 139.397 154.075C140.761 151.788 142.664 149.999 145.108 148.706C147.565 147.399 150.42 146.753 153.673 146.767ZM153.737 154.011C152.302 154.011 151.024 154.352 149.902 155.034C148.794 155.716 147.913 156.632 147.26 157.783C146.62 158.933 146.308 160.219 146.322 161.639C146.322 163.074 146.635 164.366 147.26 165.517C147.899 166.653 148.765 167.562 149.859 168.244C150.967 168.912 152.231 169.246 153.652 169.246C154.717 169.246 155.704 169.047 156.613 168.649C157.522 168.251 158.311 167.705 158.978 167.009C159.66 166.298 160.193 165.482 160.576 164.558C160.96 163.635 161.152 162.655 161.152 161.618C161.137 160.24 160.811 158.976 160.172 157.825C159.532 156.675 158.652 155.751 157.529 155.055C156.407 154.359 155.143 154.011 153.737 154.011ZM181.127 191.554C179.721 191.554 178.513 191.057 177.505 190.062C176.51 189.054 176.013 187.847 176.013 186.44C176.013 185.048 176.51 183.855 177.505 182.861C178.513 181.866 179.721 181.369 181.127 181.369C182.49 181.369 183.684 181.866 184.706 182.861C185.729 183.855 186.24 185.048 186.24 186.44C186.24 187.378 185.999 188.237 185.516 189.018C185.047 189.786 184.429 190.403 183.662 190.872C182.895 191.327 182.05 191.554 181.127 191.554ZM208.128 191.597C204.847 191.597 201.928 191.064 199.371 189.999C196.828 188.919 194.832 187.449 193.384 185.588C191.935 183.727 191.21 181.618 191.21 179.26C191.21 177.442 191.622 175.773 192.446 174.253C193.284 172.719 194.42 171.447 195.855 170.439C197.29 169.416 198.895 168.763 200.67 168.479V168.18C198.341 167.712 196.452 166.582 195.003 164.793C193.554 162.989 192.83 160.893 192.83 158.507C192.83 156.249 193.49 154.239 194.811 152.477C196.132 150.702 197.943 149.31 200.244 148.301C202.56 147.278 205.188 146.767 208.128 146.767C211.068 146.767 213.689 147.278 215.99 148.301C218.305 149.324 220.124 150.723 221.445 152.499C222.766 154.26 223.433 156.263 223.447 158.507C223.433 160.908 222.695 163.003 221.232 164.793C219.768 166.582 217.893 167.712 215.607 168.18V168.479C217.354 168.763 218.938 169.416 220.358 170.439C221.793 171.447 222.929 172.719 223.767 174.253C224.619 175.773 225.053 177.442 225.067 179.26C225.053 181.618 224.321 183.727 222.872 185.588C221.423 187.449 219.42 188.919 216.864 189.999C214.321 191.064 211.409 191.597 208.128 191.597ZM208.128 184.821C209.591 184.821 210.869 184.558 211.963 184.033C213.057 183.493 213.909 182.754 214.52 181.817C215.145 180.865 215.457 179.771 215.457 178.536C215.457 177.271 215.138 176.156 214.499 175.19C213.859 174.21 212.993 173.443 211.899 172.889C210.805 172.321 209.548 172.037 208.128 172.037C206.722 172.037 205.464 172.321 204.357 172.889C203.249 173.443 202.375 174.21 201.736 175.19C201.111 176.156 200.798 177.271 200.798 178.536C200.798 179.771 201.104 180.865 201.714 181.817C202.325 182.754 203.185 183.493 204.293 184.033C205.401 184.558 206.679 184.821 208.128 184.821ZM208.128 165.325C209.349 165.325 210.436 165.077 211.388 164.58C212.339 164.082 213.085 163.393 213.625 162.513C214.165 161.632 214.435 160.616 214.435 159.466C214.435 158.33 214.165 157.335 213.625 156.483C213.085 155.616 212.347 154.942 211.409 154.459C210.472 153.962 209.378 153.713 208.128 153.713C206.892 153.713 205.798 153.962 204.847 154.459C203.895 154.942 203.149 155.616 202.609 156.483C202.084 157.335 201.821 158.33 201.821 159.466C201.821 160.616 202.091 161.632 202.631 162.513C203.17 163.393 203.916 164.082 204.868 164.58C205.82 165.077 206.906 165.325 208.128 165.325ZM247.455 191.597C244.444 191.597 241.759 191.043 239.401 189.935C237.057 188.827 235.196 187.3 233.819 185.354C232.441 183.408 231.723 181.178 231.667 178.663H240.615C240.715 180.354 241.425 181.724 242.746 182.776C244.067 183.827 245.637 184.352 247.455 184.352C248.904 184.352 250.182 184.033 251.29 183.393C252.412 182.74 253.286 181.838 253.911 180.688C254.55 179.523 254.87 178.187 254.87 176.682C254.87 175.148 254.543 173.798 253.89 172.634C253.25 171.469 252.363 170.56 251.226 169.906C250.09 169.253 248.79 168.919 247.327 168.905C246.049 168.905 244.806 169.168 243.598 169.693C242.405 170.219 241.475 170.936 240.807 171.845L232.604 170.375L234.671 147.364H261.347V154.906H242.277L241.148 165.837H241.404C242.171 164.757 243.328 163.862 244.877 163.152C246.425 162.442 248.158 162.087 250.076 162.087C252.703 162.087 255.047 162.705 257.107 163.94C259.167 165.176 260.793 166.874 261.986 169.033C263.179 171.178 263.769 173.649 263.755 176.447C263.769 179.388 263.087 182.001 261.709 184.288C260.346 186.561 258.435 188.351 255.978 189.658C253.534 190.95 250.694 191.597 247.455 191.597Z" fill="white"/>
<path d="M111.254 260.298C109.614 260.298 108.154 260.032 106.876 259.499C105.604 258.96 104.607 258.224 103.882 257.294C103.158 256.364 102.796 255.309 102.796 254.13C102.796 253.221 103.002 252.386 103.413 251.626C103.832 250.859 104.401 250.224 105.118 249.719C105.835 249.208 106.638 248.881 107.526 248.739V248.59C106.361 248.356 105.416 247.791 104.692 246.896C103.967 245.994 103.605 244.947 103.605 243.754C103.605 242.624 103.935 241.619 104.596 240.739C105.256 239.851 106.162 239.155 107.313 238.651C108.47 238.139 109.784 237.884 111.254 237.884C112.725 237.884 114.035 238.139 115.185 238.651C116.343 239.162 117.252 239.862 117.913 240.749C118.573 241.63 118.907 242.631 118.914 243.754C118.907 244.954 118.538 246.001 117.806 246.896C117.075 247.791 116.137 248.356 114.994 248.59V248.739C115.867 248.881 116.659 249.208 117.369 249.719C118.087 250.224 118.655 250.859 119.074 251.626C119.5 252.386 119.717 253.221 119.724 254.13C119.717 255.309 119.351 256.364 118.627 257.294C117.902 258.224 116.901 258.96 115.622 259.499C114.351 260.032 112.895 260.298 111.254 260.298ZM111.254 256.911C111.986 256.911 112.625 256.779 113.172 256.516C113.719 256.246 114.145 255.877 114.45 255.408C114.763 254.933 114.919 254.386 114.919 253.768C114.919 253.136 114.759 252.578 114.44 252.095C114.12 251.605 113.687 251.222 113.14 250.945C112.593 250.661 111.965 250.518 111.254 250.518C110.551 250.518 109.923 250.661 109.369 250.945C108.815 251.222 108.378 251.605 108.058 252.095C107.746 252.578 107.59 253.136 107.59 253.768C107.59 254.386 107.742 254.933 108.048 255.408C108.353 255.877 108.783 256.246 109.337 256.516C109.891 256.779 110.53 256.911 111.254 256.911ZM111.254 247.163C111.865 247.163 112.408 247.038 112.884 246.79C113.36 246.541 113.733 246.197 114.003 245.756C114.273 245.316 114.408 244.808 114.408 244.233C114.408 243.665 114.273 243.168 114.003 242.741C113.733 242.308 113.364 241.971 112.895 241.729C112.426 241.481 111.879 241.357 111.254 241.357C110.636 241.357 110.09 241.481 109.614 241.729C109.138 241.971 108.765 242.308 108.495 242.741C108.232 243.168 108.101 243.665 108.101 244.233C108.101 244.808 108.236 245.316 108.506 245.756C108.776 246.197 109.149 246.541 109.624 246.79C110.1 247.038 110.644 247.163 111.254 247.163ZM139.438 237.159L132.407 263.281H128.497L135.528 237.159H139.438ZM148.525 260V256.676L156.292 249.485C156.952 248.846 157.506 248.271 157.954 247.759C158.408 247.248 158.753 246.747 158.987 246.257C159.221 245.76 159.339 245.224 159.339 244.648C159.339 244.009 159.193 243.459 158.902 242.997C158.611 242.528 158.213 242.17 157.709 241.921C157.204 241.665 156.633 241.538 155.993 241.538C155.326 241.538 154.743 241.673 154.246 241.942C153.749 242.212 153.366 242.599 153.096 243.104C152.826 243.608 152.691 244.208 152.691 244.904H148.312C148.312 243.477 148.635 242.237 149.282 241.186C149.928 240.135 150.834 239.322 151.998 238.746C153.163 238.171 154.505 237.884 156.025 237.884C157.588 237.884 158.948 238.161 160.106 238.714C161.27 239.261 162.176 240.021 162.822 240.994C163.468 241.967 163.792 243.082 163.792 244.339C163.792 245.163 163.628 245.977 163.302 246.779C162.982 247.582 162.41 248.473 161.586 249.453C160.763 250.426 159.601 251.594 158.103 252.958L154.917 256.08V256.229H164.079V260H148.525Z" fill="white"/>
<path d="M243.273 260.298C241.632 260.298 240.173 260.032 238.894 259.499C237.623 258.96 236.625 258.224 235.901 257.294C235.176 256.364 234.814 255.309 234.814 254.13C234.814 253.221 235.02 252.386 235.432 251.626C235.851 250.859 236.419 250.224 237.137 249.719C237.854 249.208 238.656 248.881 239.544 248.739V248.59C238.379 248.356 237.435 247.791 236.71 246.896C235.986 245.994 235.624 244.947 235.624 243.754C235.624 242.624 235.954 241.619 236.615 240.739C237.275 239.851 238.181 239.155 239.331 238.651C240.489 238.139 241.803 237.884 243.273 237.884C244.743 237.884 246.053 238.139 247.204 238.651C248.362 239.162 249.271 239.862 249.931 240.749C250.592 241.63 250.926 242.631 250.933 243.754C250.926 244.954 250.556 246.001 249.825 246.896C249.093 247.791 248.156 248.356 247.012 248.59V248.739C247.886 248.881 248.678 249.208 249.388 249.719C250.105 250.224 250.673 250.859 251.093 251.626C251.519 252.386 251.735 253.221 251.742 254.13C251.735 255.309 251.369 256.364 250.645 257.294C249.921 258.224 248.919 258.96 247.641 259.499C246.369 260.032 244.914 260.298 243.273 260.298ZM243.273 256.911C244.004 256.911 244.644 256.779 245.191 256.516C245.737 256.246 246.164 255.877 246.469 255.408C246.781 254.933 246.938 254.386 246.938 253.768C246.938 253.136 246.778 252.578 246.458 252.095C246.139 251.605 245.705 251.222 245.159 250.945C244.612 250.661 243.983 250.518 243.273 250.518C242.57 250.518 241.941 250.661 241.387 250.945C240.833 251.222 240.396 251.605 240.077 252.095C239.764 252.578 239.608 253.136 239.608 253.768C239.608 254.386 239.761 254.933 240.066 255.408C240.372 255.877 240.801 256.246 241.355 256.516C241.909 256.779 242.548 256.911 243.273 256.911ZM243.273 247.163C243.884 247.163 244.427 247.038 244.903 246.79C245.379 246.541 245.752 246.197 246.021 245.756C246.291 245.316 246.426 244.808 246.426 244.233C246.426 243.665 246.291 243.168 246.021 242.741C245.752 242.308 245.382 241.971 244.914 241.729C244.445 241.481 243.898 241.357 243.273 241.357C242.655 241.357 242.108 241.481 241.632 241.729C241.156 241.971 240.784 242.308 240.514 242.741C240.251 243.168 240.119 243.665 240.119 244.233C240.119 244.808 240.254 245.316 240.524 245.756C240.794 246.197 241.167 246.541 241.643 246.79C242.119 247.038 242.662 247.163 243.273 247.163ZM263.522 260.479C261.69 260.472 260.113 260.021 258.792 259.126C257.478 258.232 256.466 256.935 255.756 255.238C255.053 253.54 254.705 251.499 254.712 249.112C254.712 246.733 255.064 244.705 255.767 243.029C256.477 241.353 257.489 240.078 258.803 239.205C260.124 238.324 261.697 237.884 263.522 237.884C265.348 237.884 266.917 238.324 268.231 239.205C269.552 240.085 270.568 241.364 271.278 243.04C271.988 244.709 272.34 246.733 272.333 249.112C272.333 251.506 271.978 253.551 271.267 255.249C270.564 256.946 269.556 258.242 268.242 259.137C266.928 260.032 265.355 260.479 263.522 260.479ZM263.522 256.655C264.772 256.655 265.77 256.026 266.516 254.769C267.262 253.512 267.631 251.626 267.624 249.112C267.624 247.457 267.453 246.08 267.113 244.979C266.779 243.878 266.303 243.05 265.685 242.496C265.074 241.942 264.353 241.665 263.522 241.665C262.279 241.665 261.285 242.287 260.539 243.53C259.794 244.773 259.417 246.634 259.41 249.112C259.41 250.788 259.577 252.188 259.911 253.31C260.252 254.425 260.731 255.263 261.349 255.824C261.967 256.378 262.691 256.655 263.522 256.655ZM287.564 255.909V254.759C287.564 253.885 287.749 253.082 288.118 252.351C288.495 251.612 289.038 251.023 289.748 250.582C290.466 250.135 291.339 249.911 292.369 249.911C293.413 249.911 294.29 250.131 295.001 250.572C295.718 251.012 296.258 251.602 296.62 252.34C296.989 253.072 297.174 253.878 297.174 254.759V255.909C297.174 256.783 296.989 257.589 296.62 258.327C296.251 259.059 295.707 259.645 294.99 260.085C294.273 260.533 293.399 260.756 292.369 260.756C291.325 260.756 290.448 260.533 289.738 260.085C289.028 259.645 288.488 259.059 288.118 258.327C287.749 257.589 287.564 256.783 287.564 255.909ZM290.665 254.759V255.909C290.665 256.413 290.785 256.889 291.027 257.337C291.275 257.784 291.723 258.008 292.369 258.008C293.015 258.008 293.456 257.788 293.69 257.347C293.932 256.907 294.052 256.428 294.052 255.909V254.759C294.052 254.24 293.939 253.757 293.711 253.31C293.484 252.862 293.037 252.638 292.369 252.638C291.73 252.638 291.286 252.862 291.037 253.31C290.789 253.757 290.665 254.24 290.665 254.759ZM276.368 243.423V242.273C276.368 241.392 276.556 240.586 276.932 239.854C277.309 239.116 277.852 238.526 278.562 238.086C279.28 237.646 280.146 237.425 281.162 237.425C282.213 237.425 283.094 237.646 283.804 238.086C284.514 238.526 285.054 239.116 285.423 239.854C285.792 240.586 285.977 241.392 285.977 242.273V243.423C285.977 244.304 285.789 245.11 285.412 245.842C285.043 246.573 284.5 247.159 283.782 247.599C283.072 248.033 282.199 248.249 281.162 248.249C280.125 248.249 279.248 248.029 278.53 247.589C277.82 247.141 277.28 246.555 276.911 245.831C276.549 245.099 276.368 244.297 276.368 243.423ZM279.489 242.273V243.423C279.489 243.942 279.61 244.421 279.851 244.862C280.1 245.302 280.537 245.522 281.162 245.522C281.815 245.522 282.259 245.302 282.493 244.862C282.735 244.421 282.856 243.942 282.856 243.423V242.273C282.856 241.754 282.742 241.271 282.515 240.824C282.287 240.376 281.836 240.153 281.162 240.153C280.53 240.153 280.093 240.38 279.851 240.835C279.61 241.289 279.489 241.768 279.489 242.273ZM277.774 260L292.774 238.182H295.565L280.565 260H277.774Z" fill="white"/>
<rect width="402" height="70" rx="20" fill="#278B6C"/>
<path d="M335.423 34.46H343.363V36.58H335.423V34.46ZM342.143 34.46H344.743V35.62C344.743 36.4333 344.71 37.4133 344.643 38.56C344.59 39.7067 344.39 41.1133 344.043 42.78H341.383C341.756 41.14 341.976 39.74 342.043 38.58C342.11 37.4067 342.143 36.42 342.143 35.62V34.46ZM342.463 38.16V40.06L335.323 40.64L334.963 38.44L342.463 38.16ZM338.523 43.28H341.203V50.8H338.523V43.28ZM347.103 33.24H349.783V51.76H347.103V33.24ZM334.243 44.62L333.923 42.46C335.15 42.4467 336.443 42.4333 337.803 42.42C339.163 42.3933 340.55 42.3467 341.963 42.28C343.376 42.2 344.75 42.0933 346.083 41.96L346.263 43.9C344.903 44.1 343.523 44.2533 342.123 44.36C340.736 44.4533 339.376 44.52 338.043 44.56C336.723 44.5867 335.456 44.6067 334.243 44.62ZM352.422 47.4H369.202V49.56H352.422V47.4ZM359.382 35.82H361.642V36.86C361.642 37.6467 361.528 38.3933 361.302 39.1C361.088 39.8067 360.768 40.4667 360.342 41.08C359.928 41.68 359.415 42.2267 358.802 42.72C358.188 43.2 357.488 43.6133 356.702 43.96C355.915 44.3067 355.055 44.5667 354.122 44.74L353.062 42.6C353.888 42.4667 354.635 42.2667 355.302 42C355.982 41.7333 356.575 41.4133 357.082 41.04C357.588 40.6667 358.008 40.26 358.342 39.82C358.688 39.3667 358.948 38.8933 359.122 38.4C359.295 37.8933 359.382 37.38 359.382 36.86V35.82ZM359.942 35.82H362.182V36.86C362.182 37.38 362.268 37.8867 362.442 38.38C362.615 38.8733 362.875 39.3467 363.222 39.8C363.568 40.24 363.995 40.6467 364.502 41.02C365.022 41.38 365.622 41.6933 366.302 41.96C366.995 42.2133 367.762 42.4 368.602 42.52L367.562 44.64C366.602 44.4667 365.722 44.2133 364.922 43.88C364.135 43.5467 363.428 43.14 362.802 42.66C362.188 42.18 361.668 41.64 361.242 41.04C360.815 40.44 360.488 39.7933 360.262 39.1C360.048 38.3933 359.942 37.6467 359.942 36.86V35.82ZM353.802 34.8H367.762V36.92H353.802V34.8Z" fill="white"/>
<path d="M33.3436 41.9849L39.9843 35.3442C40.4432 34.8853 41.1854 34.8853 41.6395 35.3442L42.743 36.4478C43.202 36.9067 43.202 37.6489 42.743 38.103L38.0409 42.8149L42.7479 47.522C43.2069 47.981 43.2069 48.7231 42.7479 49.1772L41.6444 50.2856C41.1854 50.7446 40.4432 50.7446 39.9891 50.2856L33.3485 43.645C32.8846 43.186 32.8846 42.4438 33.3436 41.9849Z" fill="white"/>
<rect x="25" y="649" width="163.839" height="200" rx="20" fill="#309A78"/>
<path d="M82.5127 752.014V749.593L88.5851 740.026H90.6732V743.378H89.4374L85.6092 749.436V749.55H94.2385V752.014H82.5127ZM89.4942 754.571V751.276L89.551 750.203V740.026H92.4345V754.571H89.4942ZM109.844 752.554L101.357 744.081L103.218 742.199L111.712 750.693L109.844 752.554ZM103.218 752.554L101.357 750.693L109.844 742.199L111.712 744.081L103.218 752.554ZM124.402 739.827C125.15 739.827 125.87 739.952 126.561 740.203C127.257 740.454 127.877 740.854 128.422 741.404C128.971 741.953 129.404 742.682 129.721 743.591C130.043 744.496 130.207 745.606 130.212 746.922C130.212 748.158 130.072 749.261 129.792 750.232C129.518 751.198 129.123 752.019 128.606 752.696C128.09 753.373 127.468 753.889 126.739 754.245C126.009 754.595 125.195 754.77 124.295 754.77C123.325 754.77 122.468 754.583 121.724 754.209C120.981 753.83 120.382 753.317 119.927 752.668C119.478 752.014 119.205 751.281 119.111 750.466H122.143C122.262 750.996 122.51 751.408 122.889 751.702C123.268 751.991 123.737 752.135 124.295 752.135C125.242 752.135 125.962 751.723 126.454 750.899C126.947 750.071 127.195 748.937 127.2 747.497H127.101C126.883 747.924 126.589 748.291 126.22 748.598C125.851 748.901 125.427 749.136 124.949 749.301C124.475 749.467 123.971 749.55 123.436 749.55C122.579 749.55 121.814 749.349 121.142 748.946C120.47 748.544 119.939 747.99 119.551 747.284C119.163 746.579 118.969 745.774 118.969 744.87C118.964 743.894 119.189 743.025 119.643 742.263C120.098 741.501 120.732 740.904 121.547 740.473C122.366 740.038 123.318 739.822 124.402 739.827ZM124.423 742.242C123.945 742.242 123.519 742.355 123.145 742.583C122.775 742.81 122.482 743.115 122.264 743.499C122.051 743.882 121.947 744.311 121.952 744.784C121.952 745.263 122.056 745.693 122.264 746.077C122.477 746.456 122.766 746.759 123.131 746.986C123.5 747.209 123.921 747.32 124.395 747.32C124.75 747.32 125.079 747.254 125.382 747.121C125.685 746.988 125.948 746.806 126.17 746.574C126.398 746.337 126.575 746.065 126.703 745.757C126.831 745.45 126.895 745.123 126.895 744.777C126.89 744.318 126.781 743.897 126.568 743.513C126.355 743.13 126.061 742.822 125.687 742.59C125.313 742.358 124.892 742.242 124.423 742.242Z" fill="white"/>
<rect x="213.839" y="424" width="163.839" height="200" rx="20" fill="#309A78"/>
<path d="M282.768 527.014V524.593L288.84 515.026H290.929V518.378H289.693L285.865 524.436V524.55H294.494V527.014H282.768ZM289.75 529.571V526.276L289.806 525.203V515.026H292.69V529.571H289.75ZM301.969 529.77C300.875 529.77 299.902 529.593 299.05 529.237C298.202 528.878 297.537 528.388 297.054 527.767C296.571 527.147 296.33 526.444 296.33 525.658C296.33 525.052 296.467 524.496 296.742 523.989C297.021 523.478 297.4 523.054 297.878 522.718C298.356 522.377 298.891 522.159 299.483 522.064V521.965C298.707 521.809 298.077 521.432 297.594 520.835C297.111 520.234 296.87 519.536 296.87 518.74C296.87 517.987 297.09 517.318 297.53 516.73C297.97 516.139 298.574 515.675 299.341 515.338C300.113 514.997 300.989 514.827 301.969 514.827C302.949 514.827 303.823 514.997 304.59 515.338C305.362 515.679 305.968 516.146 306.408 516.737C306.848 517.325 307.071 517.992 307.076 518.74C307.071 519.541 306.825 520.239 306.337 520.835C305.849 521.432 305.224 521.809 304.462 521.965V522.064C305.044 522.159 305.572 522.377 306.046 522.718C306.524 523.054 306.903 523.478 307.182 523.989C307.466 524.496 307.611 525.052 307.615 525.658C307.611 526.444 307.367 527.147 306.884 527.767C306.401 528.388 305.733 528.878 304.881 529.237C304.033 529.593 303.063 529.77 301.969 529.77ZM301.969 527.512C302.457 527.512 302.883 527.424 303.247 527.249C303.612 527.069 303.896 526.823 304.1 526.51C304.308 526.193 304.412 525.828 304.412 525.416C304.412 524.995 304.306 524.623 304.093 524.301C303.88 523.975 303.591 523.719 303.226 523.534C302.862 523.345 302.443 523.25 301.969 523.25C301.5 523.25 301.081 523.345 300.712 523.534C300.343 523.719 300.051 523.975 299.838 524.301C299.63 524.623 299.526 524.995 299.526 525.416C299.526 525.828 299.628 526.193 299.831 526.51C300.035 526.823 300.321 527.069 300.691 527.249C301.06 527.424 301.486 527.512 301.969 527.512ZM301.969 521.013C302.376 521.013 302.738 520.93 303.056 520.764C303.373 520.599 303.621 520.369 303.801 520.076C303.981 519.782 304.071 519.443 304.071 519.06C304.071 518.681 303.981 518.35 303.801 518.066C303.621 517.777 303.375 517.552 303.063 517.391C302.75 517.225 302.386 517.142 301.969 517.142C301.557 517.142 301.193 517.225 300.875 517.391C300.558 517.552 300.309 517.777 300.13 518.066C299.954 518.35 299.867 518.681 299.867 519.06C299.867 519.443 299.957 519.782 300.137 520.076C300.317 520.369 300.565 520.599 300.882 520.764C301.2 520.93 301.562 521.013 301.969 521.013Z" fill="white"/>
<rect x="213.839" y="649" width="163.839" height="200" rx="20" fill="#309A78"/>
<path d="M284.131 754.572V752.356L289.308 747.562C289.749 747.136 290.118 746.753 290.416 746.412C290.719 746.071 290.949 745.737 291.105 745.41C291.261 745.079 291.34 744.721 291.34 744.338C291.34 743.912 291.243 743.545 291.048 743.237C290.854 742.925 290.589 742.685 290.253 742.52C289.917 742.349 289.536 742.264 289.109 742.264C288.664 742.264 288.276 742.354 287.945 742.534C287.613 742.714 287.358 742.972 287.178 743.308C286.998 743.644 286.908 744.044 286.908 744.508H283.989C283.989 743.557 284.204 742.73 284.635 742.03C285.066 741.329 285.67 740.787 286.446 740.403C287.223 740.02 288.118 739.828 289.131 739.828C290.172 739.828 291.079 740.013 291.851 740.382C292.627 740.747 293.231 741.253 293.662 741.902C294.093 742.55 294.308 743.294 294.308 744.132C294.308 744.681 294.199 745.223 293.982 745.758C293.769 746.293 293.387 746.888 292.838 747.541C292.289 748.19 291.515 748.969 290.516 749.878L288.392 751.959V752.058H294.5V754.572H284.131ZM297.304 754.572L303.334 742.64V742.541H296.309V740.027H306.515V742.577L300.478 754.572H297.304Z" fill="white"/>
<rect x="25" y="649" width="163.839" height="200" rx="20" fill="#309A78"/>
<path d="M82.5127 752.014V749.593L88.5851 740.026H90.6732V743.378H89.4374L85.6092 749.436V749.55H94.2385V752.014H82.5127ZM89.4942 754.571V751.276L89.551 750.203V740.026H92.4345V754.571H89.4942ZM109.844 752.554L101.357 744.081L103.218 742.199L111.712 750.693L109.844 752.554ZM103.218 752.554L101.357 750.693L109.844 742.199L111.712 744.081L103.218 752.554ZM124.402 739.827C125.15 739.827 125.87 739.952 126.561 740.203C127.257 740.454 127.877 740.854 128.422 741.404C128.971 741.953 129.404 742.682 129.721 743.591C130.043 744.496 130.207 745.606 130.212 746.922C130.212 748.158 130.072 749.261 129.792 750.232C129.518 751.198 129.123 752.019 128.606 752.696C128.09 753.373 127.468 753.889 126.739 754.245C126.009 754.595 125.195 754.77 124.295 754.77C123.325 754.77 122.468 754.583 121.724 754.209C120.981 753.83 120.382 753.317 119.927 752.668C119.478 752.014 119.205 751.281 119.111 750.466H122.143C122.262 750.996 122.51 751.408 122.889 751.702C123.268 751.991 123.737 752.135 124.295 752.135C125.242 752.135 125.962 751.723 126.454 750.899C126.947 750.071 127.195 748.937 127.2 747.497H127.101C126.883 747.924 126.589 748.291 126.22 748.598C125.851 748.901 125.427 749.136 124.949 749.301C124.475 749.467 123.971 749.55 123.436 749.55C122.579 749.55 121.814 749.349 121.142 748.946C120.47 748.544 119.939 747.99 119.551 747.284C119.163 746.579 118.969 745.774 118.969 744.87C118.964 743.894 119.189 743.025 119.643 742.263C120.098 741.501 120.732 740.904 121.547 740.473C122.366 740.038 123.318 739.822 124.402 739.827ZM124.423 742.242C123.945 742.242 123.519 742.355 123.145 742.583C122.775 742.81 122.482 743.115 122.264 743.499C122.051 743.882 121.947 744.311 121.952 744.784C121.952 745.263 122.056 745.693 122.264 746.077C122.477 746.456 122.766 746.759 123.131 746.986C123.5 747.209 123.921 747.32 124.395 747.32C124.75 747.32 125.079 747.254 125.382 747.121C125.685 746.988 125.948 746.806 126.17 746.574C126.398 746.337 126.575 746.065 126.703 745.757C126.831 745.45 126.895 745.123 126.895 744.777C126.89 744.318 126.781 743.897 126.568 743.513C126.355 743.13 126.061 742.822 125.687 742.59C125.313 742.358 124.892 742.242 124.423 742.242Z" fill="white"/>
<rect x="25" y="424" width="163.839" height="200" rx="20" fill="#309A78"/>
<path d="M88.4812 529.77C87.7331 529.765 87.0111 529.64 86.315 529.394C85.6237 529.148 85.0035 528.747 84.4542 528.193C83.905 527.639 83.4694 526.906 83.1474 525.992C82.8302 525.078 82.6716 523.956 82.6716 522.625C82.6763 521.404 82.816 520.312 83.0906 519.351C83.37 518.385 83.7677 517.566 84.2838 516.894C84.8046 516.221 85.4273 515.71 86.1517 515.36C86.8761 515.005 87.6881 514.827 88.5878 514.827C89.5584 514.827 90.4154 515.016 91.1588 515.395C91.9022 515.769 92.4987 516.278 92.9486 516.922C93.4031 517.566 93.6777 518.288 93.7724 519.088H90.7398C90.6214 518.582 90.3728 518.184 89.994 517.895C89.6152 517.606 89.1465 517.462 88.5878 517.462C87.6408 517.462 86.9211 517.874 86.4287 518.698C85.941 519.522 85.6924 520.641 85.6829 522.057H85.7824C86.0002 521.626 86.2937 521.259 86.663 520.956C87.0371 520.648 87.4609 520.414 87.9344 520.253C88.4126 520.087 88.9168 520.005 89.4471 520.005C90.3089 520.005 91.0759 520.208 91.7483 520.615C92.4206 521.018 92.9509 521.572 93.3392 522.277C93.7274 522.983 93.9216 523.79 93.9216 524.699C93.9216 525.684 93.6919 526.56 93.2326 527.327C92.7781 528.094 92.1413 528.695 91.3221 529.131C90.5077 529.562 89.5608 529.775 88.4812 529.77ZM88.467 527.355C88.9405 527.355 89.3643 527.242 89.7383 527.014C90.1124 526.787 90.4059 526.479 90.619 526.091C90.8321 525.703 90.9386 525.267 90.9386 524.784C90.9386 524.301 90.8321 523.868 90.619 523.485C90.4107 523.101 90.1219 522.796 89.7525 522.568C89.3832 522.341 88.9618 522.228 88.4883 522.228C88.1332 522.228 87.8041 522.294 87.5011 522.426C87.2028 522.559 86.94 522.744 86.7128 522.98C86.4902 523.217 86.315 523.492 86.1872 523.804C86.0594 524.112 85.9954 524.441 85.9954 524.791C85.9954 525.26 86.102 525.689 86.315 526.077C86.5328 526.465 86.8264 526.775 87.1957 527.007C87.5698 527.239 87.9935 527.355 88.467 527.355ZM109.658 527.554L101.171 519.081L103.032 517.199L111.526 525.693L109.658 527.554ZM103.032 527.554L101.171 525.693L109.658 517.199L111.526 519.081L103.032 527.554ZM124.38 529.77C123.286 529.77 122.313 529.593 121.461 529.237C120.613 528.878 119.948 528.388 119.465 527.767C118.982 527.147 118.74 526.444 118.74 525.658C118.74 525.052 118.878 524.496 119.152 523.989C119.432 523.478 119.811 523.054 120.289 522.718C120.767 522.377 121.302 522.159 121.894 522.064V521.965C121.117 521.809 120.488 521.432 120.005 520.835C119.522 520.234 119.28 519.536 119.28 518.74C119.28 517.987 119.5 517.318 119.941 516.73C120.381 516.139 120.985 515.675 121.752 515.338C122.524 514.997 123.4 514.827 124.38 514.827C125.36 514.827 126.233 514.997 127 515.338C127.772 515.679 128.378 516.146 128.819 516.737C129.259 517.325 129.481 517.992 129.486 518.74C129.481 519.541 129.235 520.239 128.748 520.835C128.26 521.432 127.635 521.809 126.873 521.965V522.064C127.455 522.159 127.983 522.377 128.456 522.718C128.935 523.054 129.313 523.478 129.593 523.989C129.877 524.496 130.021 525.052 130.026 525.658C130.021 526.444 129.777 527.147 129.294 527.767C128.811 528.388 128.144 528.878 127.292 529.237C126.444 529.593 125.473 529.77 124.38 529.77ZM124.38 527.512C124.867 527.512 125.293 527.424 125.658 527.249C126.023 527.069 126.307 526.823 126.51 526.51C126.719 526.193 126.823 525.828 126.823 525.416C126.823 524.995 126.716 524.623 126.503 524.301C126.29 523.975 126.001 523.719 125.637 523.534C125.272 523.345 124.853 523.25 124.38 523.25C123.911 523.25 123.492 523.345 123.123 523.534C122.753 523.719 122.462 523.975 122.249 524.301C122.041 524.623 121.936 524.995 121.936 525.416C121.936 525.828 122.038 526.193 122.242 526.51C122.445 526.823 122.732 527.069 123.101 527.249C123.471 527.424 123.897 527.512 124.38 527.512ZM124.38 521.013C124.787 521.013 125.149 520.93 125.466 520.764C125.784 520.599 126.032 520.369 126.212 520.076C126.392 519.782 126.482 519.443 126.482 519.06C126.482 518.681 126.392 518.35 126.212 518.066C126.032 517.777 125.786 517.552 125.473 517.391C125.161 517.225 124.796 517.142 124.38 517.142C123.968 517.142 123.603 517.225 123.286 517.391C122.969 517.552 122.72 517.777 122.54 518.066C122.365 518.35 122.277 518.681 122.277 519.06C122.277 519.443 122.367 519.782 122.547 520.076C122.727 520.369 122.976 520.599 123.293 520.764C123.61 520.93 123.972 521.013 124.38 521.013Z" fill="white"/>
</svg>
