<svg width="402" height="874" viewBox="0 0 402 874" fill="none" xmlns="http://www.w3.org/2000/svg">
<g clip-path="url(#clip0_175_142)">
<path d="M201 206V409" stroke="white" stroke-width="2"/>
<path d="M53 248L53 495" stroke="white" stroke-width="2"/>
<path d="M88 249H53" stroke="white" stroke-width="2"/>
<path d="M348 248L348 494.5" stroke="white" stroke-width="2"/>
<path d="M313 249H348" stroke="white" stroke-width="2"/>
<rect x="110" y="134" width="181" height="71" rx="9" stroke="white" stroke-width="2"/>
<rect x="222" y="224" width="90" height="50" rx="9" stroke="white" stroke-width="2"/>
<rect x="89" y="224" width="90" height="50" rx="9" stroke="white" stroke-width="2"/>
<path d="M174.109 427.24H176.769V437.68H174.109V427.24ZM176.049 431.14H179.229V433.32H176.049V431.14ZM164.729 438.52H176.769V445.58H164.729V438.52ZM174.189 440.62H167.349V443.48H174.189V440.62ZM162.949 428.12H165.609V435.7H162.949V428.12ZM162.949 434.56H164.489C165.755 434.56 167.069 434.513 168.429 434.42C169.802 434.313 171.215 434.12 172.669 433.84L172.969 435.96C171.475 436.267 170.015 436.48 168.589 436.6C167.175 436.707 165.809 436.76 164.489 436.76H162.949V434.56ZM180.587 436.7H197.347V438.8H180.587V436.7ZM182.627 443.32H195.467V445.46H182.627V443.32ZM182.627 440.04H185.287V444H182.627V440.04ZM188.967 427.8C190.314 427.8 191.487 427.953 192.487 428.26C193.5 428.567 194.287 429.007 194.847 429.58C195.407 430.153 195.687 430.827 195.687 431.6C195.687 432.387 195.407 433.067 194.847 433.64C194.287 434.213 193.5 434.653 192.487 434.96C191.487 435.267 190.314 435.42 188.967 435.42C187.634 435.42 186.46 435.267 185.447 434.96C184.447 434.653 183.667 434.213 183.107 433.64C182.547 433.067 182.267 432.387 182.267 431.6C182.267 430.827 182.547 430.153 183.107 429.58C183.667 429.007 184.447 428.567 185.447 428.26C186.46 427.953 187.634 427.8 188.967 427.8ZM188.967 429.9C188.154 429.9 187.447 429.967 186.847 430.1C186.247 430.233 185.794 430.427 185.487 430.68C185.18 430.92 185.027 431.227 185.027 431.6C185.027 431.973 185.18 432.287 185.487 432.54C185.794 432.793 186.247 432.987 186.847 433.12C187.447 433.253 188.154 433.32 188.967 433.32C189.807 433.32 190.52 433.253 191.107 433.12C191.694 432.987 192.14 432.793 192.447 432.54C192.767 432.287 192.927 431.973 192.927 431.6C192.927 431.227 192.767 430.92 192.447 430.68C192.14 430.427 191.694 430.233 191.107 430.1C190.52 429.967 189.807 429.9 188.967 429.9ZM208.134 428.68H210.314V431.36C210.314 432.56 210.208 433.713 209.994 434.82C209.781 435.913 209.454 436.94 209.014 437.9C208.588 438.847 208.034 439.687 207.354 440.42C206.688 441.14 205.894 441.713 204.974 442.14L203.394 439.94C204.208 439.58 204.908 439.107 205.494 438.52C206.094 437.92 206.588 437.24 206.974 436.48C207.361 435.707 207.648 434.887 207.834 434.02C208.034 433.153 208.134 432.267 208.134 431.36V428.68ZM208.654 428.68H210.814V431.36C210.814 432.227 210.908 433.073 211.094 433.9C211.281 434.727 211.561 435.507 211.934 436.24C212.321 436.973 212.801 437.627 213.374 438.2C213.961 438.76 214.648 439.207 215.434 439.54L213.894 441.7C213.001 441.287 212.221 440.733 211.554 440.04C210.901 439.347 210.361 438.547 209.934 437.64C209.508 436.72 209.188 435.733 208.974 434.68C208.761 433.613 208.654 432.507 208.654 431.36V428.68ZM216.334 427.22H218.994V445.8H216.334V427.22ZM233.913 427.26H236.593V440.5H233.913V427.26ZM235.853 432.42H239.053V434.6H235.853V432.42ZM228.773 428.64H231.593C231.593 430.32 231.26 431.82 230.593 433.14C229.926 434.46 228.953 435.587 227.673 436.52C226.406 437.453 224.846 438.187 222.993 438.72L221.893 436.62C223.4 436.193 224.66 435.647 225.673 434.98C226.7 434.313 227.473 433.553 227.993 432.7C228.513 431.847 228.773 430.927 228.773 429.94V428.64ZM222.693 428.64H230.193V430.76H222.693V428.64ZM224.633 443.32H237.233V445.46H224.633V443.32ZM224.633 439.16H227.293V444.28H224.633V439.16Z" fill="white"/>
<path d="M334.262 518.72H337.782V520.88H334.262V518.72ZM337.042 514.26H339.722V525.26H337.042V514.26ZM333.442 525.66C334.749 525.66 335.876 525.8 336.822 526.08C337.769 526.36 338.496 526.767 339.002 527.3C339.522 527.833 339.782 528.473 339.782 529.22C339.782 530.367 339.216 531.247 338.082 531.86C336.949 532.487 335.402 532.8 333.442 532.8C331.482 532.8 329.936 532.487 328.802 531.86C327.669 531.247 327.102 530.367 327.102 529.22C327.102 528.473 327.356 527.833 327.862 527.3C328.382 526.767 329.116 526.36 330.062 526.08C331.009 525.8 332.136 525.66 333.442 525.66ZM333.442 527.68C332.642 527.68 331.969 527.74 331.422 527.86C330.876 527.967 330.456 528.133 330.162 528.36C329.882 528.587 329.742 528.873 329.742 529.22C329.742 529.567 329.882 529.86 330.162 530.1C330.456 530.327 330.876 530.5 331.422 530.62C331.969 530.727 332.642 530.78 333.442 530.78C334.242 530.78 334.916 530.727 335.462 530.62C336.009 530.5 336.422 530.327 336.702 530.1C336.982 529.86 337.122 529.567 337.122 529.22C337.122 528.873 336.982 528.587 336.702 528.36C336.422 528.133 336.009 527.967 335.462 527.86C334.916 527.74 334.242 527.68 333.442 527.68ZM328.502 516.1H330.662V517.28C330.662 518.453 330.476 519.573 330.102 520.64C329.729 521.707 329.156 522.647 328.382 523.46C327.622 524.26 326.649 524.86 325.462 525.26L324.122 523.16C324.882 522.907 325.536 522.567 326.082 522.14C326.642 521.713 327.096 521.24 327.442 520.72C327.802 520.187 328.069 519.627 328.242 519.04C328.416 518.453 328.502 517.867 328.502 517.28V516.1ZM329.062 516.1H331.182V517.26C331.182 517.993 331.329 518.713 331.622 519.42C331.916 520.127 332.369 520.767 332.982 521.34C333.609 521.913 334.409 522.367 335.382 522.7L334.082 524.78C332.936 524.393 331.989 523.827 331.242 523.08C330.509 522.32 329.962 521.44 329.602 520.44C329.242 519.427 329.062 518.367 329.062 517.26V516.1ZM324.842 515.38H334.802V517.48H324.842V515.38ZM346.801 522.72H349.461V525.36H346.801V522.72ZM354.641 514.26H357.301V526.88H354.641V514.26ZM356.381 519.54H359.641V521.74H356.381V519.54ZM342.701 526.5L342.401 524.44C343.507 524.44 344.707 524.433 346.001 524.42C347.307 524.407 348.627 524.367 349.961 524.3C351.294 524.22 352.587 524.107 353.841 523.96L354.041 525.78C352.747 526.007 351.434 526.173 350.101 526.28C348.767 526.373 347.467 526.433 346.201 526.46C344.947 526.473 343.781 526.487 342.701 526.5ZM344.741 527.6H357.301V532.78H354.641V529.66H344.741V527.6ZM342.861 515.6H353.381V517.52H342.861V515.6ZM348.121 517.96C349.494 517.96 350.587 518.207 351.401 518.7C352.227 519.18 352.641 519.847 352.641 520.7C352.641 521.553 352.227 522.227 351.401 522.72C350.587 523.213 349.494 523.46 348.121 523.46C346.761 523.46 345.667 523.213 344.841 522.72C344.027 522.227 343.621 521.553 343.621 520.7C343.621 519.847 344.027 519.18 344.841 518.7C345.667 518.207 346.761 517.96 348.121 517.96ZM348.121 519.68C347.494 519.68 347.007 519.767 346.661 519.94C346.314 520.113 346.141 520.367 346.141 520.7C346.141 521.033 346.314 521.293 346.661 521.48C347.007 521.653 347.494 521.74 348.121 521.74C348.747 521.74 349.234 521.653 349.581 521.48C349.941 521.293 350.121 521.033 350.121 520.7C350.121 520.367 349.941 520.113 349.581 519.94C349.234 519.767 348.747 519.68 348.121 519.68ZM346.801 514.1H349.461V516.48H346.801V514.1ZM362.979 522.5H375.999V524.64H362.979V522.5ZM361.019 528.52H377.799V530.7H361.019V528.52ZM368.059 523.48H370.699V529.22H368.059V523.48ZM362.979 515.52H375.859V517.64H365.619V523.42H362.979V515.52Z" fill="white"/>
<path d="M26.34 515.42H35.18V523.6H26.34V515.42ZM32.56 517.54H28.96V521.48H32.56V517.54ZM37.72 514.26H40.38V524.62H37.72V514.26ZM39.66 518.26H42.84V520.44H39.66V518.26ZM33 526.48H35.26V526.92C35.26 527.627 35.1133 528.3 34.82 528.94C34.5267 529.58 34.0867 530.16 33.5 530.68C32.9267 531.187 32.2067 531.613 31.34 531.96C30.4867 532.32 29.5 532.573 28.38 532.72L27.42 530.7C28.3933 530.58 29.2267 530.393 29.92 530.14C30.6267 529.887 31.2067 529.587 31.66 529.24C32.1133 528.893 32.4467 528.52 32.66 528.12C32.8867 527.707 33 527.307 33 526.92V526.48ZM33.6 526.48H35.84V526.92C35.84 527.307 35.9533 527.7 36.18 528.1C36.4067 528.487 36.7467 528.86 37.2 529.22C37.6667 529.567 38.2467 529.873 38.94 530.14C39.6333 530.407 40.4533 530.6 41.4 530.72L40.46 532.74C39.34 532.593 38.3533 532.34 37.5 531.98C36.6467 531.62 35.9267 531.18 35.34 530.66C34.7667 530.14 34.3333 529.56 34.04 528.92C33.7467 528.28 33.6 527.613 33.6 526.92V526.48ZM28.22 525.48H40.62V527.58H28.22V525.48ZM44.1984 523.7H60.9584V525.8H44.1984V523.7ZM46.2384 530.32H59.0784V532.46H46.2384V530.32ZM46.2384 527.04H48.8984V531H46.2384V527.04ZM52.5784 514.8C53.9251 514.8 55.0984 514.953 56.0984 515.26C57.1118 515.567 57.8984 516.007 58.4584 516.58C59.0184 517.153 59.2984 517.827 59.2984 518.6C59.2984 519.387 59.0184 520.067 58.4584 520.64C57.8984 521.213 57.1118 521.653 56.0984 521.96C55.0984 522.267 53.9251 522.42 52.5784 522.42C51.2451 522.42 50.0718 522.267 49.0584 521.96C48.0584 521.653 47.2784 521.213 46.7184 520.64C46.1584 520.067 45.8784 519.387 45.8784 518.6C45.8784 517.827 46.1584 517.153 46.7184 516.58C47.2784 516.007 48.0584 515.567 49.0584 515.26C50.0718 514.953 51.2451 514.8 52.5784 514.8ZM52.5784 516.9C51.7651 516.9 51.0584 516.967 50.4584 517.1C49.8584 517.233 49.4051 517.427 49.0984 517.68C48.7918 517.92 48.6384 518.227 48.6384 518.6C48.6384 518.973 48.7918 519.287 49.0984 519.54C49.4051 519.793 49.8584 519.987 50.4584 520.12C51.0584 520.253 51.7651 520.32 52.5784 520.32C53.4184 520.32 54.1318 520.253 54.7184 520.12C55.3051 519.987 55.7518 519.793 56.0584 519.54C56.3784 519.287 56.5384 518.973 56.5384 518.6C56.5384 518.227 56.3784 517.92 56.0584 517.68C55.7518 517.427 55.3051 517.233 54.7184 517.1C54.1318 516.967 53.4184 516.9 52.5784 516.9ZM80.5658 514.24H83.0858V532.76H80.5658V514.24ZM78.2058 521.22H81.2858V523.36H78.2058V521.22ZM72.6858 516.52H75.2458C75.2458 517.827 75.1324 519.067 74.9058 520.24C74.6924 521.413 74.3324 522.527 73.8258 523.58C73.3191 524.62 72.6324 525.593 71.7658 526.5C70.9124 527.393 69.8391 528.22 68.5458 528.98L67.0058 527.12C68.4058 526.293 69.5191 525.387 70.3458 524.4C71.1858 523.4 71.7858 522.3 72.1458 521.1C72.5058 519.887 72.6858 518.54 72.6858 517.06V516.52ZM67.9258 516.52H73.4658V518.64H67.9258V516.52ZM76.4458 514.72H78.9458V531.96H76.4458V514.72ZM92.6242 514.78H94.9442V515.66C94.9442 516.367 94.8309 517.053 94.6042 517.72C94.3909 518.373 94.0709 518.987 93.6442 519.56C93.2176 520.133 92.6976 520.647 92.0842 521.1C91.4709 521.553 90.7576 521.94 89.9442 522.26C89.1442 522.567 88.2642 522.8 87.3042 522.96L86.2642 520.82C87.1176 520.713 87.8776 520.533 88.5442 520.28C89.2242 520.027 89.8176 519.727 90.3242 519.38C90.8442 519.033 91.2709 518.653 91.6042 518.24C91.9376 517.827 92.1909 517.4 92.3642 516.96C92.5376 516.52 92.6242 516.087 92.6242 515.66V514.78ZM93.1242 514.78H95.4442V515.66C95.4442 516.087 95.5309 516.52 95.7042 516.96C95.8776 517.4 96.1309 517.827 96.4642 518.24C96.7976 518.653 97.2176 519.033 97.7242 519.38C98.2442 519.727 98.8376 520.027 99.5042 520.28C100.184 520.533 100.951 520.713 101.804 520.82L100.764 522.96C99.7909 522.8 98.9042 522.567 98.1042 522.26C97.3042 521.94 96.5976 521.553 95.9842 521.1C95.3709 520.633 94.8509 520.113 94.4242 519.54C93.9976 518.967 93.6709 518.353 93.4442 517.7C93.2309 517.047 93.1242 516.367 93.1242 515.66V514.78ZM92.6242 525.98H95.2842V532.78H92.6242V525.98ZM85.6442 524.3H102.404V526.46H85.6442V524.3ZM115.394 515.773L110.707 533.188H108.1L112.788 515.773H115.394ZM123.153 519.9H136.053V521.7H123.153V519.9ZM123.153 514.62H135.893V516.42H125.793V520.78H123.153V514.62ZM125.033 517.3H135.493V519.02H125.033V517.3ZM121.133 522.54H137.793V524.5H121.133V522.54ZM122.993 525.36H135.793V529.84H125.653V531.72H123.013V528.08H133.173V527.2H122.993V525.36ZM123.013 530.78H136.293V532.66H123.013V530.78ZM152.212 514.26H154.872V527.9H152.212V514.26ZM142.472 530.32H155.332V532.46H142.472V530.32ZM142.472 526.78H145.132V531.42H142.472V526.78ZM140.452 523.42H142.052C143.345 523.42 144.485 523.407 145.472 523.38C146.459 523.353 147.365 523.3 148.192 523.22C149.032 523.14 149.872 523.02 150.712 522.86L150.972 524.96C150.119 525.12 149.259 525.247 148.392 525.34C147.525 525.42 146.585 525.48 145.572 525.52C144.559 525.547 143.385 525.56 142.052 525.56H140.452V523.42ZM140.412 515.46H148.952V521.4H143.052V524.02H140.452V519.42H146.312V517.58H140.412V515.46ZM175.839 514.24H178.359V532.76H175.839V514.24ZM173.479 521.22H176.559V523.36H173.479V521.22ZM167.959 516.52H170.519C170.519 517.827 170.406 519.067 170.179 520.24C169.966 521.413 169.606 522.527 169.099 523.58C168.593 524.62 167.906 525.593 167.039 526.5C166.186 527.393 165.113 528.22 163.819 528.98L162.279 527.12C163.679 526.293 164.793 525.387 165.619 524.4C166.459 523.4 167.059 522.3 167.419 521.1C167.779 519.887 167.959 518.54 167.959 517.06V516.52ZM163.199 516.52H168.739V518.64H163.199V516.52ZM171.719 514.72H174.219V531.96H171.719V514.72ZM187.898 514.78H190.218V515.66C190.218 516.367 190.104 517.053 189.878 517.72C189.664 518.373 189.344 518.987 188.918 519.56C188.491 520.133 187.971 520.647 187.358 521.1C186.744 521.553 186.031 521.94 185.218 522.26C184.418 522.567 183.538 522.8 182.578 522.96L181.538 520.82C182.391 520.713 183.151 520.533 183.818 520.28C184.498 520.027 185.091 519.727 185.598 519.38C186.118 519.033 186.544 518.653 186.878 518.24C187.211 517.827 187.464 517.4 187.638 516.96C187.811 516.52 187.898 516.087 187.898 515.66V514.78ZM188.398 514.78H190.718V515.66C190.718 516.087 190.804 516.52 190.978 516.96C191.151 517.4 191.404 517.827 191.738 518.24C192.071 518.653 192.491 519.033 192.998 519.38C193.518 519.727 194.111 520.027 194.778 520.28C195.458 520.533 196.224 520.713 197.078 520.82L196.038 522.96C195.064 522.8 194.178 522.567 193.378 522.26C192.578 521.94 191.871 521.553 191.258 521.1C190.644 520.633 190.124 520.113 189.698 519.54C189.271 518.967 188.944 518.353 188.718 517.7C188.504 517.047 188.398 516.367 188.398 515.66V514.78ZM187.898 525.98H190.558V532.78H187.898V525.98ZM180.918 524.3H197.678V526.46H180.918V524.3Z" fill="white"/>
<path d="M111.254 260.298C109.614 260.298 108.154 260.032 106.876 259.499C105.604 258.96 104.607 258.224 103.882 257.294C103.158 256.364 102.796 255.309 102.796 254.13C102.796 253.221 103.002 252.386 103.413 251.626C103.832 250.859 104.401 250.224 105.118 249.719C105.835 249.208 106.638 248.881 107.526 248.739V248.59C106.361 248.356 105.416 247.791 104.692 246.896C103.967 245.994 103.605 244.947 103.605 243.754C103.605 242.624 103.935 241.619 104.596 240.739C105.256 239.851 106.162 239.155 107.313 238.651C108.47 238.139 109.784 237.884 111.254 237.884C112.725 237.884 114.035 238.139 115.185 238.651C116.343 239.162 117.252 239.862 117.913 240.749C118.573 241.63 118.907 242.631 118.914 243.754C118.907 244.954 118.538 246.001 117.806 246.896C117.075 247.791 116.137 248.356 114.994 248.59V248.739C115.867 248.881 116.659 249.208 117.369 249.719C118.087 250.224 118.655 250.859 119.074 251.626C119.5 252.386 119.717 253.221 119.724 254.13C119.717 255.309 119.351 256.364 118.627 257.294C117.902 258.224 116.901 258.96 115.622 259.499C114.351 260.032 112.895 260.298 111.254 260.298ZM111.254 256.911C111.986 256.911 112.625 256.779 113.172 256.516C113.719 256.246 114.145 255.877 114.45 255.408C114.763 254.933 114.919 254.386 114.919 253.768C114.919 253.136 114.759 252.578 114.44 252.095C114.12 251.605 113.687 251.222 113.14 250.945C112.593 250.661 111.965 250.518 111.254 250.518C110.551 250.518 109.923 250.661 109.369 250.945C108.815 251.222 108.378 251.605 108.058 252.095C107.746 252.578 107.59 253.136 107.59 253.768C107.59 254.386 107.742 254.933 108.048 255.408C108.353 255.877 108.783 256.246 109.337 256.516C109.891 256.779 110.53 256.911 111.254 256.911ZM111.254 247.163C111.865 247.163 112.408 247.038 112.884 246.79C113.36 246.541 113.733 246.197 114.003 245.756C114.273 245.316 114.408 244.808 114.408 244.233C114.408 243.665 114.273 243.168 114.003 242.741C113.733 242.308 113.364 241.971 112.895 241.729C112.426 241.481 111.879 241.357 111.254 241.357C110.636 241.357 110.09 241.481 109.614 241.729C109.138 241.971 108.765 242.308 108.495 242.741C108.232 243.168 108.101 243.665 108.101 244.233C108.101 244.808 108.236 245.316 108.506 245.756C108.776 246.197 109.149 246.541 109.624 246.79C110.1 247.038 110.644 247.163 111.254 247.163ZM139.438 237.159L132.407 263.281H128.497L135.528 237.159H139.438ZM148.525 260V256.676L156.292 249.485C156.952 248.846 157.506 248.271 157.954 247.759C158.408 247.248 158.753 246.747 158.987 246.257C159.221 245.76 159.339 245.224 159.339 244.648C159.339 244.009 159.193 243.459 158.902 242.997C158.611 242.528 158.213 242.17 157.709 241.921C157.204 241.665 156.633 241.538 155.993 241.538C155.326 241.538 154.743 241.673 154.246 241.942C153.749 242.212 153.366 242.599 153.096 243.104C152.826 243.608 152.691 244.208 152.691 244.904H148.312C148.312 243.477 148.635 242.237 149.282 241.186C149.928 240.135 150.834 239.322 151.998 238.746C153.163 238.171 154.505 237.884 156.025 237.884C157.588 237.884 158.948 238.161 160.106 238.714C161.27 239.261 162.176 240.021 162.822 240.994C163.468 241.967 163.792 243.082 163.792 244.339C163.792 245.163 163.628 245.977 163.302 246.779C162.982 247.582 162.41 248.473 161.586 249.453C160.763 250.426 159.601 251.594 158.103 252.958L154.917 256.08V256.229H164.079V260H148.525Z" fill="white"/>
<path d="M153.673 146.767C155.917 146.767 158.076 147.143 160.15 147.896C162.238 148.649 164.099 149.849 165.733 151.497C167.38 153.145 168.68 155.332 169.632 158.06C170.598 160.773 171.088 164.104 171.102 168.053C171.102 171.76 170.683 175.07 169.845 177.982C169.021 180.879 167.835 183.344 166.287 185.375C164.738 187.406 162.87 188.955 160.683 190.02C158.495 191.071 156.052 191.597 153.353 191.597C150.441 191.597 147.87 191.036 145.64 189.913C143.41 188.777 141.613 187.236 140.25 185.29C138.9 183.33 138.083 181.128 137.799 178.685H146.897C147.252 180.276 147.998 181.511 149.135 182.392C150.271 183.259 151.677 183.692 153.353 183.692C156.194 183.692 158.353 182.456 159.831 179.984C161.308 177.499 162.054 174.097 162.068 169.778H161.77C161.116 171.057 160.235 172.158 159.127 173.081C158.02 173.99 156.748 174.693 155.314 175.19C153.893 175.688 152.38 175.936 150.775 175.936C148.204 175.936 145.91 175.332 143.893 174.125C141.876 172.918 140.285 171.256 139.12 169.139C137.956 167.023 137.373 164.608 137.373 161.895C137.359 158.969 138.034 156.362 139.397 154.075C140.761 151.788 142.664 149.999 145.108 148.706C147.565 147.399 150.42 146.753 153.673 146.767ZM153.737 154.011C152.302 154.011 151.024 154.352 149.902 155.034C148.794 155.716 147.913 156.632 147.26 157.783C146.62 158.933 146.308 160.219 146.322 161.639C146.322 163.074 146.635 164.366 147.26 165.517C147.899 166.653 148.765 167.562 149.859 168.244C150.967 168.912 152.231 169.246 153.652 169.246C154.717 169.246 155.704 169.047 156.613 168.649C157.522 168.251 158.311 167.705 158.978 167.009C159.66 166.298 160.193 165.482 160.576 164.558C160.96 163.635 161.152 162.655 161.152 161.618C161.137 160.24 160.811 158.976 160.172 157.825C159.532 156.675 158.652 155.751 157.529 155.055C156.407 154.359 155.143 154.011 153.737 154.011ZM181.127 191.554C179.721 191.554 178.513 191.057 177.505 190.062C176.51 189.054 176.013 187.847 176.013 186.44C176.013 185.048 176.51 183.855 177.505 182.861C178.513 181.866 179.721 181.369 181.127 181.369C182.49 181.369 183.684 181.866 184.706 182.861C185.729 183.855 186.24 185.048 186.24 186.44C186.24 187.378 185.999 188.237 185.516 189.018C185.047 189.786 184.429 190.403 183.662 190.872C182.895 191.327 182.05 191.554 181.127 191.554ZM208.128 191.597C204.847 191.597 201.928 191.064 199.371 189.999C196.828 188.919 194.832 187.449 193.384 185.588C191.935 183.727 191.21 181.618 191.21 179.26C191.21 177.442 191.622 175.773 192.446 174.253C193.284 172.719 194.42 171.447 195.855 170.439C197.29 169.416 198.895 168.763 200.67 168.479V168.18C198.341 167.712 196.452 166.582 195.003 164.793C193.554 162.989 192.83 160.893 192.83 158.507C192.83 156.249 193.49 154.239 194.811 152.477C196.132 150.702 197.943 149.31 200.244 148.301C202.56 147.278 205.188 146.767 208.128 146.767C211.068 146.767 213.689 147.278 215.99 148.301C218.305 149.324 220.124 150.723 221.445 152.499C222.766 154.26 223.433 156.263 223.447 158.507C223.433 160.908 222.695 163.003 221.232 164.793C219.768 166.582 217.893 167.712 215.607 168.18V168.479C217.354 168.763 218.938 169.416 220.358 170.439C221.793 171.447 222.929 172.719 223.767 174.253C224.619 175.773 225.053 177.442 225.067 179.26C225.053 181.618 224.321 183.727 222.872 185.588C221.423 187.449 219.42 188.919 216.864 189.999C214.321 191.064 211.409 191.597 208.128 191.597ZM208.128 184.821C209.591 184.821 210.869 184.558 211.963 184.033C213.057 183.493 213.909 182.754 214.52 181.817C215.145 180.865 215.457 179.771 215.457 178.536C215.457 177.271 215.138 176.156 214.499 175.19C213.859 174.21 212.993 173.443 211.899 172.889C210.805 172.321 209.548 172.037 208.128 172.037C206.722 172.037 205.464 172.321 204.357 172.889C203.249 173.443 202.375 174.21 201.736 175.19C201.111 176.156 200.798 177.271 200.798 178.536C200.798 179.771 201.104 180.865 201.714 181.817C202.325 182.754 203.185 183.493 204.293 184.033C205.401 184.558 206.679 184.821 208.128 184.821ZM208.128 165.325C209.349 165.325 210.436 165.077 211.388 164.58C212.339 164.082 213.085 163.393 213.625 162.513C214.165 161.632 214.435 160.616 214.435 159.466C214.435 158.33 214.165 157.335 213.625 156.483C213.085 155.616 212.347 154.942 211.409 154.459C210.472 153.962 209.378 153.713 208.128 153.713C206.892 153.713 205.798 153.962 204.847 154.459C203.895 154.942 203.149 155.616 202.609 156.483C202.084 157.335 201.821 158.33 201.821 159.466C201.821 160.616 202.091 161.632 202.631 162.513C203.17 163.393 203.916 164.082 204.868 164.58C205.82 165.077 206.906 165.325 208.128 165.325ZM247.455 191.597C244.444 191.597 241.759 191.043 239.401 189.935C237.057 188.827 235.196 187.3 233.819 185.354C232.441 183.408 231.723 181.178 231.667 178.663H240.615C240.715 180.354 241.425 181.724 242.746 182.776C244.067 183.827 245.637 184.352 247.455 184.352C248.904 184.352 250.182 184.033 251.29 183.393C252.412 182.74 253.286 181.838 253.911 180.688C254.55 179.523 254.87 178.187 254.87 176.682C254.87 175.148 254.543 173.798 253.89 172.634C253.25 171.469 252.363 170.56 251.226 169.906C250.09 169.253 248.79 168.919 247.327 168.905C246.049 168.905 244.806 169.168 243.598 169.693C242.405 170.219 241.475 170.936 240.807 171.845L232.604 170.375L234.671 147.364H261.347V154.906H242.277L241.148 165.837H241.404C242.171 164.757 243.328 163.862 244.877 163.152C246.425 162.442 248.158 162.087 250.076 162.087C252.703 162.087 255.047 162.705 257.107 163.94C259.167 165.176 260.793 166.874 261.986 169.033C263.179 171.178 263.769 173.649 263.755 176.447C263.769 179.388 263.087 182.001 261.709 184.288C260.346 186.561 258.435 188.351 255.978 189.658C253.534 190.95 250.694 191.597 247.455 191.597Z" fill="white"/>
<path d="M243.273 260.298C241.632 260.298 240.173 260.032 238.894 259.499C237.623 258.96 236.625 258.224 235.901 257.294C235.176 256.364 234.814 255.309 234.814 254.13C234.814 253.221 235.02 252.386 235.432 251.626C235.851 250.859 236.419 250.224 237.137 249.719C237.854 249.208 238.656 248.881 239.544 248.739V248.59C238.379 248.356 237.435 247.791 236.71 246.896C235.986 245.994 235.624 244.947 235.624 243.754C235.624 242.624 235.954 241.619 236.615 240.739C237.275 239.851 238.181 239.155 239.331 238.651C240.489 238.139 241.803 237.884 243.273 237.884C244.743 237.884 246.053 238.139 247.204 238.651C248.362 239.162 249.271 239.862 249.931 240.749C250.592 241.63 250.926 242.631 250.933 243.754C250.926 244.954 250.556 246.001 249.825 246.896C249.093 247.791 248.156 248.356 247.012 248.59V248.739C247.886 248.881 248.678 249.208 249.388 249.719C250.105 250.224 250.673 250.859 251.093 251.626C251.519 252.386 251.735 253.221 251.742 254.13C251.735 255.309 251.369 256.364 250.645 257.294C249.921 258.224 248.919 258.96 247.641 259.499C246.369 260.032 244.914 260.298 243.273 260.298ZM243.273 256.911C244.004 256.911 244.644 256.779 245.191 256.516C245.737 256.246 246.164 255.877 246.469 255.408C246.781 254.933 246.938 254.386 246.938 253.768C246.938 253.136 246.778 252.578 246.458 252.095C246.139 251.605 245.705 251.222 245.159 250.945C244.612 250.661 243.983 250.518 243.273 250.518C242.57 250.518 241.941 250.661 241.387 250.945C240.833 251.222 240.396 251.605 240.077 252.095C239.764 252.578 239.608 253.136 239.608 253.768C239.608 254.386 239.761 254.933 240.066 255.408C240.372 255.877 240.801 256.246 241.355 256.516C241.909 256.779 242.548 256.911 243.273 256.911ZM243.273 247.163C243.884 247.163 244.427 247.038 244.903 246.79C245.379 246.541 245.752 246.197 246.021 245.756C246.291 245.316 246.426 244.808 246.426 244.233C246.426 243.665 246.291 243.168 246.021 242.741C245.752 242.308 245.382 241.971 244.914 241.729C244.445 241.481 243.898 241.357 243.273 241.357C242.655 241.357 242.108 241.481 241.632 241.729C241.156 241.971 240.784 242.308 240.514 242.741C240.251 243.168 240.119 243.665 240.119 244.233C240.119 244.808 240.254 245.316 240.524 245.756C240.794 246.197 241.167 246.541 241.643 246.79C242.119 247.038 242.662 247.163 243.273 247.163ZM263.522 260.479C261.69 260.472 260.113 260.021 258.792 259.126C257.478 258.232 256.466 256.935 255.756 255.238C255.053 253.54 254.705 251.499 254.712 249.112C254.712 246.733 255.064 244.705 255.767 243.029C256.477 241.353 257.489 240.078 258.803 239.205C260.124 238.324 261.697 237.884 263.522 237.884C265.348 237.884 266.917 238.324 268.231 239.205C269.552 240.085 270.568 241.364 271.278 243.04C271.988 244.709 272.34 246.733 272.333 249.112C272.333 251.506 271.978 253.551 271.267 255.249C270.564 256.946 269.556 258.242 268.242 259.137C266.928 260.032 265.355 260.479 263.522 260.479ZM263.522 256.655C264.772 256.655 265.77 256.026 266.516 254.769C267.262 253.512 267.631 251.626 267.624 249.112C267.624 247.457 267.453 246.08 267.113 244.979C266.779 243.878 266.303 243.05 265.685 242.496C265.074 241.942 264.353 241.665 263.522 241.665C262.279 241.665 261.285 242.287 260.539 243.53C259.794 244.773 259.417 246.634 259.41 249.112C259.41 250.788 259.577 252.188 259.911 253.31C260.252 254.425 260.731 255.263 261.349 255.824C261.967 256.378 262.691 256.655 263.522 256.655ZM287.564 255.909V254.759C287.564 253.885 287.749 253.082 288.118 252.351C288.495 251.612 289.038 251.023 289.748 250.582C290.466 250.135 291.339 249.911 292.369 249.911C293.413 249.911 294.29 250.131 295.001 250.572C295.718 251.012 296.258 251.602 296.62 252.34C296.989 253.072 297.174 253.878 297.174 254.759V255.909C297.174 256.783 296.989 257.589 296.62 258.327C296.251 259.059 295.707 259.645 294.99 260.085C294.273 260.533 293.399 260.756 292.369 260.756C291.325 260.756 290.448 260.533 289.738 260.085C289.028 259.645 288.488 259.059 288.118 258.327C287.749 257.589 287.564 256.783 287.564 255.909ZM290.665 254.759V255.909C290.665 256.413 290.785 256.889 291.027 257.337C291.275 257.784 291.723 258.008 292.369 258.008C293.015 258.008 293.456 257.788 293.69 257.347C293.932 256.907 294.052 256.428 294.052 255.909V254.759C294.052 254.24 293.939 253.757 293.711 253.31C293.484 252.862 293.037 252.638 292.369 252.638C291.73 252.638 291.286 252.862 291.037 253.31C290.789 253.757 290.665 254.24 290.665 254.759ZM276.368 243.423V242.273C276.368 241.392 276.556 240.586 276.932 239.854C277.309 239.116 277.852 238.526 278.562 238.086C279.28 237.646 280.146 237.425 281.162 237.425C282.213 237.425 283.094 237.646 283.804 238.086C284.514 238.526 285.054 239.116 285.423 239.854C285.792 240.586 285.977 241.392 285.977 242.273V243.423C285.977 244.304 285.789 245.11 285.412 245.842C285.043 246.573 284.5 247.159 283.782 247.599C283.072 248.033 282.199 248.249 281.162 248.249C280.125 248.249 279.248 248.029 278.53 247.589C277.82 247.141 277.28 246.555 276.911 245.831C276.549 245.099 276.368 244.297 276.368 243.423ZM279.489 242.273V243.423C279.489 243.942 279.61 244.421 279.851 244.862C280.1 245.302 280.537 245.522 281.162 245.522C281.815 245.522 282.259 245.302 282.493 244.862C282.735 244.421 282.856 243.942 282.856 243.423V242.273C282.856 241.754 282.742 241.271 282.515 240.824C282.287 240.376 281.836 240.153 281.162 240.153C280.53 240.153 280.093 240.38 279.851 240.835C279.61 241.289 279.489 241.768 279.489 242.273ZM277.774 260L292.774 238.182H295.565L280.565 260H277.774Z" fill="white"/>
</g>
<defs>
<clipPath id="clip0_175_142">
<rect width="402" height="874" fill="white"/>
</clipPath>
</defs>
</svg>
