<svg width="402" height="874" viewBox="0 0 402 874" fill="none" xmlns="http://www.w3.org/2000/svg">
<g clip-path="url(#clip0_175_95)">
<path d="M214 530H189" stroke="white" stroke-width="2"/>
<path d="M86.1572 308.58H91.4372V311.82H86.1572V308.58ZM90.3272 301.89H94.3472V318.39H90.3272V301.89ZM84.9272 318.99C86.8872 318.99 88.5772 319.2 89.9972 319.62C91.4172 320.04 92.5072 320.65 93.2672 321.45C94.0472 322.25 94.4372 323.21 94.4372 324.33C94.4372 326.05 93.5872 327.37 91.8872 328.29C90.1872 329.23 87.8672 329.7 84.9272 329.7C81.9872 329.7 79.6672 329.23 77.9672 328.29C76.2672 327.37 75.4172 326.05 75.4172 324.33C75.4172 323.21 75.7972 322.25 76.5572 321.45C77.3372 320.65 78.4372 320.04 79.8572 319.62C81.2772 319.2 82.9672 318.99 84.9272 318.99ZM84.9272 322.02C83.7272 322.02 82.7172 322.11 81.8972 322.29C81.0772 322.45 80.4472 322.7 80.0072 323.04C79.5872 323.38 79.3772 323.81 79.3772 324.33C79.3772 324.85 79.5872 325.29 80.0072 325.65C80.4472 325.99 81.0772 326.25 81.8972 326.43C82.7172 326.59 83.7272 326.67 84.9272 326.67C86.1272 326.67 87.1372 326.59 87.9572 326.43C88.7772 326.25 89.3972 325.99 89.8172 325.65C90.2372 325.29 90.4472 324.85 90.4472 324.33C90.4472 323.81 90.2372 323.38 89.8172 323.04C89.3972 322.7 88.7772 322.45 87.9572 322.29C87.1372 322.11 86.1272 322.02 84.9272 322.02ZM77.5172 304.65H80.7572V306.42C80.7572 308.18 80.4772 309.86 79.9172 311.46C79.3572 313.06 78.4972 314.47 77.3372 315.69C76.1972 316.89 74.7372 317.79 72.9572 318.39L70.9472 315.24C72.0872 314.86 73.0672 314.35 73.8872 313.71C74.7272 313.07 75.4072 312.36 75.9272 311.58C76.4672 310.78 76.8672 309.94 77.1272 309.06C77.3872 308.18 77.5172 307.3 77.5172 306.42V304.65ZM78.3572 304.65H81.5372V306.39C81.5372 307.49 81.7572 308.57 82.1972 309.63C82.6372 310.69 83.3172 311.65 84.2372 312.51C85.1772 313.37 86.3772 314.05 87.8372 314.55L85.8872 317.67C84.1672 317.09 82.7472 316.24 81.6272 315.12C80.5272 313.98 79.7072 312.66 79.1672 311.16C78.6272 309.64 78.3572 308.05 78.3572 306.39V304.65ZM72.0272 303.57H86.9672V306.72H72.0272V303.57ZM116.545 301.86H120.535V316.74H116.545V301.86ZM119.455 307.86H124.225V311.1H119.455V307.86ZM99.7148 312.93H102.025C104.045 312.93 105.765 312.91 107.185 312.87C108.625 312.81 109.905 312.72 111.025 312.6C112.165 312.48 113.285 312.3 114.385 312.06L114.775 315.21C113.655 315.47 112.505 315.67 111.325 315.81C110.165 315.93 108.845 316.02 107.365 316.08C105.885 316.12 104.105 316.14 102.025 316.14H99.7148V312.93ZM99.7148 303.54H112.075V306.69H103.705V315.06H99.7148V303.54ZM102.415 318.09H106.375V320.64H116.605V318.09H120.535V329.34H102.415V318.09ZM106.375 323.7V326.13H116.605V323.7H106.375ZM138.863 302.25C142.023 302.25 144.483 302.66 146.243 303.48C148.023 304.3 148.913 305.48 148.913 307.02C148.913 308.54 148.023 309.71 146.243 310.53C144.483 311.35 142.023 311.76 138.863 311.76C135.683 311.76 133.203 311.35 131.423 310.53C129.663 309.71 128.783 308.54 128.783 307.02C128.783 305.48 129.663 304.3 131.423 303.48C133.203 302.66 135.683 302.25 138.863 302.25ZM138.833 305.19C137.513 305.19 136.413 305.26 135.533 305.4C134.653 305.52 133.993 305.72 133.553 306C133.133 306.26 132.923 306.6 132.923 307.02C132.923 307.44 133.133 307.79 133.553 308.07C133.993 308.33 134.653 308.52 135.533 308.64C136.413 308.76 137.513 308.82 138.833 308.82C140.173 308.82 141.283 308.76 142.163 308.64C143.043 308.52 143.693 308.33 144.113 308.07C144.533 307.79 144.743 307.44 144.743 307.02C144.743 306.6 144.533 306.26 144.113 306C143.693 305.72 143.043 305.52 142.163 305.4C141.283 305.26 140.173 305.19 138.833 305.19ZM126.263 313.05H151.403V316.2H126.263V313.05ZM129.143 317.76H148.343V324.87H133.133V327.33H129.173V322.11H144.413V320.7H129.143V317.76ZM129.173 326.46H149.093V329.49H129.173V326.46ZM164.284 305.22H167.104V306.78C167.104 307.9 167.024 309.01 166.864 310.11C166.724 311.21 166.474 312.26 166.114 313.26C165.774 314.24 165.294 315.12 164.674 315.9C164.054 316.68 163.264 317.32 162.304 317.82L160.234 315C161.014 314.58 161.664 314.07 162.184 313.47C162.704 312.85 163.114 312.18 163.414 311.46C163.734 310.74 163.954 309.98 164.074 309.18C164.214 308.38 164.284 307.58 164.284 306.78V305.22ZM165.304 305.22H168.004V306.78C168.004 307.5 168.054 308.25 168.154 309.03C168.274 309.81 168.454 310.58 168.694 311.34C168.954 312.08 169.314 312.79 169.774 313.47C170.254 314.13 170.854 314.72 171.574 315.24L169.834 318.12C168.894 317.54 168.124 316.83 167.524 315.99C166.924 315.13 166.464 314.18 166.144 313.14C165.824 312.1 165.604 311.04 165.484 309.96C165.364 308.86 165.304 307.8 165.304 306.78V305.22ZM171.604 305.22H174.304V306.78C174.304 307.82 174.244 308.89 174.124 309.99C174.024 311.09 173.814 312.15 173.494 313.17C173.174 314.19 172.714 315.13 172.114 315.99C171.534 316.85 170.774 317.56 169.834 318.12L168.094 315.24C168.814 314.74 169.404 314.16 169.864 313.5C170.324 312.82 170.684 312.11 170.944 311.37C171.204 310.61 171.374 309.84 171.454 309.06C171.554 308.28 171.604 307.52 171.604 306.78V305.22ZM172.564 305.22H175.384V306.78C175.384 307.84 175.504 308.9 175.744 309.96C175.984 311 176.404 311.96 177.004 312.84C177.604 313.7 178.414 314.42 179.434 315L177.364 317.82C176.104 317.16 175.124 316.25 174.424 315.09C173.724 313.93 173.234 312.64 172.954 311.22C172.694 309.78 172.564 308.3 172.564 306.78V305.22ZM179.524 301.89H183.544V318.45H179.524V301.89ZM181.534 308.52H186.304V311.79H181.534V308.52ZM164.104 319.62H183.544V329.67H179.524V322.77H164.104V319.62ZM161.314 303.69H169.384V306.87H161.314V303.69ZM170.314 303.69H178.174V306.87H170.314V303.69ZM195.121 306.27H198.301V309.39C198.301 310.99 198.131 312.56 197.791 314.1C197.471 315.64 196.981 317.09 196.321 318.45C195.681 319.79 194.871 320.98 193.891 322.02C192.911 323.04 191.771 323.85 190.471 324.45L188.191 321.3C189.351 320.76 190.361 320.06 191.221 319.2C192.101 318.34 192.821 317.38 193.381 316.32C193.961 315.24 194.391 314.11 194.671 312.93C194.971 311.73 195.121 310.55 195.121 309.39V306.27ZM195.991 306.27H199.141V309.39C199.141 310.49 199.281 311.61 199.561 312.75C199.861 313.87 200.291 314.94 200.851 315.96C201.411 316.96 202.121 317.86 202.981 318.66C203.841 319.46 204.861 320.1 206.041 320.58L203.851 323.76C202.531 323.18 201.381 322.4 200.401 321.42C199.421 320.44 198.601 319.31 197.941 318.03C197.281 316.75 196.791 315.38 196.471 313.92C196.151 312.44 195.991 310.93 195.991 309.39V306.27ZM189.301 304.53H204.901V307.83H189.301V304.53ZM207.481 301.89H211.471V329.67H207.481V301.89ZM223.619 303.78C224.999 303.78 226.229 304.19 227.309 305.01C228.409 305.81 229.259 306.96 229.859 308.46C230.479 309.94 230.789 311.69 230.789 313.71C230.789 315.75 230.479 317.52 229.859 319.02C229.259 320.5 228.409 321.65 227.309 322.47C226.229 323.27 224.999 323.67 223.619 323.67C222.239 323.67 221.009 323.27 219.929 322.47C218.849 321.65 217.999 320.5 217.379 319.02C216.759 317.52 216.449 315.75 216.449 313.71C216.449 311.69 216.759 309.94 217.379 308.46C217.999 306.96 218.849 305.81 219.929 305.01C221.009 304.19 222.239 303.78 223.619 303.78ZM223.619 307.41C222.959 307.41 222.369 307.65 221.849 308.13C221.349 308.61 220.959 309.32 220.679 310.26C220.399 311.18 220.259 312.33 220.259 313.71C220.259 315.07 220.399 316.23 220.679 317.19C220.959 318.13 221.349 318.84 221.849 319.32C222.369 319.8 222.959 320.04 223.619 320.04C224.319 320.04 224.919 319.8 225.419 319.32C225.919 318.84 226.309 318.13 226.589 317.19C226.869 316.23 227.009 315.07 227.009 313.71C227.009 312.33 226.869 311.18 226.589 310.26C226.309 309.32 225.919 308.61 225.419 308.13C224.919 307.65 224.319 307.41 223.619 307.41ZM235.349 301.83H239.339V329.7H235.349V301.83ZM229.619 311.88H237.029V315.06H229.619V311.88ZM260.83 304.95H264.31V305.79C264.31 306.75 264.15 307.68 263.83 308.58C263.53 309.48 263.07 310.32 262.45 311.1C261.83 311.86 261.07 312.55 260.17 313.17C259.29 313.77 258.27 314.28 257.11 314.7C255.95 315.12 254.66 315.42 253.24 315.6L251.77 312.51C253.01 312.35 254.11 312.11 255.07 311.79C256.05 311.45 256.9 311.06 257.62 310.62C258.34 310.16 258.94 309.67 259.42 309.15C259.9 308.63 260.25 308.08 260.47 307.5C260.71 306.92 260.83 306.35 260.83 305.79V304.95ZM262 304.95H265.45V305.79C265.45 306.35 265.56 306.92 265.78 307.5C266.02 308.08 266.38 308.63 266.86 309.15C267.34 309.67 267.94 310.16 268.66 310.62C269.4 311.06 270.25 311.45 271.21 311.79C272.17 312.11 273.27 312.35 274.51 312.51L273.04 315.6C271.62 315.42 270.33 315.12 269.17 314.7C268.01 314.28 266.98 313.77 266.08 313.17C265.2 312.55 264.45 311.86 263.83 311.1C263.23 310.32 262.77 309.48 262.45 308.58C262.15 307.68 262 306.75 262 305.79V304.95ZM261.04 319.5H265.03V329.67H261.04V319.5ZM250.57 317.19H275.71V320.4H250.57V317.19ZM252.79 303.3H273.4V306.45H252.79V303.3ZM289.088 311.22H293.708V314.46H289.088V311.22ZM283.178 304.29H286.208V308.94C286.208 310.52 286.098 312.07 285.878 313.59C285.658 315.11 285.298 316.54 284.798 317.88C284.318 319.22 283.678 320.43 282.878 321.51C282.098 322.57 281.148 323.44 280.028 324.12L277.628 321.12C278.668 320.5 279.538 319.74 280.238 318.84C280.938 317.94 281.508 316.95 281.948 315.87C282.388 314.79 282.698 313.67 282.878 312.51C283.078 311.33 283.178 310.14 283.178 308.94V304.29ZM284.048 304.29H287.018V308.76C287.018 309.9 287.098 311.03 287.258 312.15C287.438 313.27 287.718 314.34 288.098 315.36C288.478 316.38 288.978 317.32 289.598 318.18C290.238 319.04 291.038 319.78 291.998 320.4L289.808 323.52C288.728 322.84 287.808 321.98 287.048 320.94C286.308 319.88 285.718 318.69 285.278 317.37C284.838 316.05 284.518 314.66 284.318 313.2C284.138 311.74 284.048 310.26 284.048 308.76V304.29ZM298.208 301.86H302.018V329.64H298.208V301.86ZM292.568 302.31H296.288V328.41H292.568V302.31ZM311.285 315.99H315.275V323.76H311.285V315.99ZM321.365 315.99H325.355V323.76H321.365V315.99ZM305.765 323.19H330.935V326.43H305.765V323.19ZM318.305 303.24C320.305 303.24 322.085 303.55 323.645 304.17C325.225 304.79 326.455 305.66 327.335 306.78C328.235 307.88 328.685 309.19 328.685 310.71C328.685 312.21 328.235 313.52 327.335 314.64C326.455 315.74 325.225 316.6 323.645 317.22C322.085 317.84 320.305 318.15 318.305 318.15C316.325 318.15 314.545 317.84 312.965 317.22C311.405 316.6 310.175 315.74 309.275 314.64C308.375 313.52 307.925 312.21 307.925 310.71C307.925 309.19 308.375 307.88 309.275 306.78C310.175 305.66 311.405 304.79 312.965 304.17C314.545 303.55 316.325 303.24 318.305 303.24ZM318.305 306.33C317.025 306.33 315.895 306.51 314.915 306.87C313.955 307.21 313.205 307.7 312.665 308.34C312.125 308.98 311.855 309.77 311.855 310.71C311.855 311.61 312.125 312.39 312.665 313.05C313.205 313.69 313.955 314.19 314.915 314.55C315.895 314.89 317.025 315.06 318.305 315.06C319.605 315.06 320.735 314.89 321.695 314.55C322.675 314.19 323.425 313.69 323.945 313.05C324.485 312.39 324.755 311.61 324.755 310.71C324.755 309.77 324.485 308.98 323.945 308.34C323.425 307.7 322.675 307.21 321.695 306.87C320.735 306.51 319.605 306.33 318.305 306.33Z" fill="white"/>
<rect x="214.839" y="425" width="161.839" height="198" rx="19" fill="#309A78" stroke="white" stroke-width="2"/>
<path d="M282.768 527.014V524.593L288.84 515.026H290.929V518.378H289.693L285.865 524.436V524.55H294.494V527.014H282.768ZM289.75 529.571V526.276L289.806 525.203V515.026H292.69V529.571H289.75ZM301.969 529.77C300.875 529.77 299.902 529.593 299.05 529.237C298.202 528.878 297.537 528.388 297.054 527.767C296.571 527.147 296.33 526.444 296.33 525.658C296.33 525.052 296.467 524.496 296.742 523.989C297.021 523.478 297.4 523.054 297.878 522.718C298.356 522.377 298.891 522.159 299.483 522.064V521.965C298.707 521.809 298.077 521.432 297.594 520.835C297.111 520.234 296.87 519.536 296.87 518.74C296.87 517.987 297.09 517.318 297.53 516.73C297.97 516.139 298.574 515.675 299.341 515.338C300.113 514.997 300.989 514.827 301.969 514.827C302.949 514.827 303.823 514.997 304.59 515.338C305.362 515.679 305.968 516.146 306.408 516.737C306.848 517.325 307.071 517.992 307.076 518.74C307.071 519.541 306.825 520.239 306.337 520.835C305.849 521.432 305.224 521.809 304.462 521.965V522.064C305.044 522.159 305.572 522.377 306.046 522.718C306.524 523.054 306.903 523.478 307.182 523.989C307.466 524.496 307.611 525.052 307.615 525.658C307.611 526.444 307.367 527.147 306.884 527.767C306.401 528.388 305.733 528.878 304.881 529.237C304.033 529.593 303.063 529.77 301.969 529.77ZM301.969 527.512C302.457 527.512 302.883 527.424 303.247 527.249C303.612 527.069 303.896 526.823 304.1 526.51C304.308 526.193 304.412 525.828 304.412 525.416C304.412 524.995 304.306 524.623 304.093 524.301C303.88 523.975 303.591 523.719 303.226 523.534C302.862 523.345 302.443 523.25 301.969 523.25C301.5 523.25 301.081 523.345 300.712 523.534C300.343 523.719 300.051 523.975 299.838 524.301C299.63 524.623 299.526 524.995 299.526 525.416C299.526 525.828 299.628 526.193 299.831 526.51C300.035 526.823 300.321 527.069 300.691 527.249C301.06 527.424 301.486 527.512 301.969 527.512ZM301.969 521.013C302.376 521.013 302.738 520.93 303.056 520.764C303.373 520.599 303.621 520.369 303.801 520.076C303.981 519.782 304.071 519.443 304.071 519.06C304.071 518.681 303.981 518.35 303.801 518.066C303.621 517.777 303.375 517.552 303.063 517.391C302.75 517.225 302.386 517.142 301.969 517.142C301.557 517.142 301.193 517.225 300.875 517.391C300.558 517.552 300.309 517.777 300.13 518.066C299.954 518.35 299.867 518.681 299.867 519.06C299.867 519.443 299.957 519.782 300.137 520.076C300.317 520.369 300.565 520.599 300.882 520.764C301.2 520.93 301.562 521.013 301.969 521.013Z" fill="white"/>
<rect x="26" y="425" width="161.839" height="198" rx="19" fill="#309A78" stroke="white" stroke-width="2"/>
<path d="M88.4812 529.77C87.7331 529.765 87.0111 529.64 86.315 529.394C85.6237 529.148 85.0035 528.747 84.4542 528.193C83.905 527.639 83.4694 526.906 83.1474 525.992C82.8302 525.078 82.6716 523.956 82.6716 522.625C82.6763 521.404 82.816 520.312 83.0906 519.351C83.37 518.385 83.7677 517.566 84.2838 516.894C84.8046 516.221 85.4273 515.71 86.1517 515.36C86.8761 515.005 87.6881 514.827 88.5878 514.827C89.5584 514.827 90.4154 515.016 91.1588 515.395C91.9022 515.769 92.4987 516.278 92.9486 516.922C93.4031 517.566 93.6777 518.288 93.7724 519.088H90.7398C90.6214 518.582 90.3728 518.184 89.994 517.895C89.6152 517.606 89.1465 517.462 88.5878 517.462C87.6408 517.462 86.9211 517.874 86.4287 518.698C85.941 519.522 85.6924 520.641 85.6829 522.057H85.7824C86.0002 521.626 86.2937 521.259 86.663 520.956C87.0371 520.648 87.4609 520.414 87.9344 520.253C88.4126 520.087 88.9168 520.005 89.4471 520.005C90.3089 520.005 91.0759 520.208 91.7483 520.615C92.4206 521.018 92.9509 521.572 93.3392 522.277C93.7274 522.983 93.9216 523.79 93.9216 524.699C93.9216 525.684 93.6919 526.56 93.2326 527.327C92.7781 528.094 92.1413 528.695 91.3221 529.131C90.5077 529.562 89.5608 529.775 88.4812 529.77ZM88.467 527.355C88.9405 527.355 89.3643 527.242 89.7383 527.014C90.1124 526.787 90.4059 526.479 90.619 526.091C90.8321 525.703 90.9386 525.267 90.9386 524.784C90.9386 524.301 90.8321 523.868 90.619 523.485C90.4107 523.101 90.1219 522.796 89.7525 522.568C89.3832 522.341 88.9618 522.228 88.4883 522.228C88.1332 522.228 87.8041 522.294 87.5011 522.426C87.2028 522.559 86.94 522.744 86.7128 522.98C86.4902 523.217 86.315 523.492 86.1872 523.804C86.0594 524.112 85.9954 524.441 85.9954 524.791C85.9954 525.26 86.102 525.689 86.315 526.077C86.5328 526.465 86.8264 526.775 87.1957 527.007C87.5698 527.239 87.9935 527.355 88.467 527.355ZM109.658 527.554L101.171 519.081L103.032 517.199L111.526 525.693L109.658 527.554ZM103.032 527.554L101.171 525.693L109.658 517.199L111.526 519.081L103.032 527.554ZM124.38 529.77C123.286 529.77 122.313 529.593 121.461 529.237C120.613 528.878 119.948 528.388 119.465 527.767C118.982 527.147 118.74 526.444 118.74 525.658C118.74 525.052 118.878 524.496 119.152 523.989C119.432 523.478 119.811 523.054 120.289 522.718C120.767 522.377 121.302 522.159 121.894 522.064V521.965C121.117 521.809 120.488 521.432 120.005 520.835C119.522 520.234 119.28 519.536 119.28 518.74C119.28 517.987 119.5 517.318 119.941 516.73C120.381 516.139 120.985 515.675 121.752 515.338C122.524 514.997 123.4 514.827 124.38 514.827C125.36 514.827 126.233 514.997 127 515.338C127.772 515.679 128.378 516.146 128.819 516.737C129.259 517.325 129.481 517.992 129.486 518.74C129.481 519.541 129.235 520.239 128.748 520.835C128.26 521.432 127.635 521.809 126.873 521.965V522.064C127.455 522.159 127.983 522.377 128.456 522.718C128.935 523.054 129.313 523.478 129.593 523.989C129.877 524.496 130.021 525.052 130.026 525.658C130.021 526.444 129.777 527.147 129.294 527.767C128.811 528.388 128.144 528.878 127.292 529.237C126.444 529.593 125.473 529.77 124.38 529.77ZM124.38 527.512C124.867 527.512 125.293 527.424 125.658 527.249C126.023 527.069 126.307 526.823 126.51 526.51C126.719 526.193 126.823 525.828 126.823 525.416C126.823 524.995 126.716 524.623 126.503 524.301C126.29 523.975 126.001 523.719 125.637 523.534C125.272 523.345 124.853 523.25 124.38 523.25C123.911 523.25 123.492 523.345 123.123 523.534C122.753 523.719 122.462 523.975 122.249 524.301C122.041 524.623 121.936 524.995 121.936 525.416C121.936 525.828 122.038 526.193 122.242 526.51C122.445 526.823 122.732 527.069 123.101 527.249C123.471 527.424 123.897 527.512 124.38 527.512ZM124.38 521.013C124.787 521.013 125.149 520.93 125.466 520.764C125.784 520.599 126.032 520.369 126.212 520.076C126.392 519.782 126.482 519.443 126.482 519.06C126.482 518.681 126.392 518.35 126.212 518.066C126.032 517.777 125.786 517.552 125.473 517.391C125.161 517.225 124.796 517.142 124.38 517.142C123.968 517.142 123.603 517.225 123.286 517.391C122.969 517.552 122.72 517.777 122.54 518.066C122.365 518.35 122.277 518.681 122.277 519.06C122.277 519.443 122.367 519.782 122.547 520.076C122.727 520.369 122.976 520.599 123.293 520.764C123.61 520.93 123.972 521.013 124.38 521.013Z" fill="white"/>
</g>
<defs>
<clipPath id="clip0_175_95">
<rect width="402" height="874" fill="white"/>
</clipPath>
</defs>
</svg>
